<svg xmlns="http://www.w3.org/2000/svg" version="1.1" xmlns:xlink="http://www.w3.org/1999/xlink" width="16px" height="16px"><svg version="1.1" xmlns="http://www.w3.org/2000/svg" xmlns:xlink="http://www.w3.org/1999/xlink" width="16px" height="16px" viewBox="0,0,256,256"><g fill="none" fill-rule="nonzero" stroke="none" stroke-width="1" stroke-linecap="butt" stroke-linejoin="miter" stroke-miterlimit="10" stroke-dasharray="" stroke-dashoffset="0" font-family="none" font-weight="none" font-size="none" text-anchor="none" style="mix-blend-mode: normal"><g transform="scale(16,16)"><path d="M8,0.5c-4.14214,0 -7.5,3.35786 -7.5,7.5c0,4.14214 3.35786,7.5 7.5,7.5c4.14214,0 7.5,-3.35786 7.5,-7.5c0,-4.14214 -3.35786,-7.5 -7.5,-7.5z" fill="#f6fcff"></path><path d="M8,1c3.9,0 7,3.1 7,7c0,3.9 -3.1,7 -7,7c-3.9,0 -7,-3.1 -7,-7c0,-3.9 3.1,-7 7,-7M8,0c-4.4,0 -8,3.6 -8,8c0,4.4 3.6,8 8,8c4.4,0 8,-3.6 8,-8c0,-4.4 -3.6,-8 -8,-8z" fill="#788b9c"></path><path transform="translate(-2.60404,6.28545) rotate(-45.001)" d="M5.8,3.9h1v4.8h-1z" fill="#4e7ab5"></path><path d="M8,7.4c-0.33137,0 -0.6,0.26863 -0.6,0.6c0,0.33137 0.26863,0.6 0.6,0.6c0.33137,0 0.6,-0.26863 0.6,-0.6c0,-0.33137 -0.26863,-0.6 -0.6,-0.6z" fill="#8bb7f0"></path><path d="M8,7.9c0.1,0 0.1,0.1 0.1,0.1c0,0.1 -0.1,0.1 -0.1,0.1c0,0 -0.1,0 -0.1,-0.1c0,-0.1 0,-0.1 0.1,-0.1M8,6.9c-0.6,0 -1.1,0.5 -1.1,1.1c0,0.6 0.5,1.1 1.1,1.1c0.6,0 1.1,-0.5 1.1,-1.1c0,-0.6 -0.5,-1.1 -1.1,-1.1z" fill="#4e7ab5"></path><path transform="translate(-0.14662,2.04563) rotate(-20.762)" d="M5,0.7h1v1.5h-1z" fill="#788b9c"></path><path transform="translate(-1.00674,5.50814) rotate(-20.702)" d="M13.8,5h1.5v1h-1.5z" fill="#788b9c"></path><path transform="translate(-3.62431,1.18503) rotate(-20.751)" d="M0.7,10h1.5v1h-1.5z" fill="#788b9c"></path><path transform="translate(4.96579,10.86491) rotate(-65.739)" d="M10.1,1.1h1.5v1h-1.5z" fill="#788b9c"></path><path transform="translate(-1.43924,19.55233) rotate(-65.731)" d="M13.9,10.1h1v1.5h-1z" fill="#788b9c"></path><path transform="translate(-3.72223,4.46158) rotate(-65.757)" d="M1.1,4.4h1v1.5h-1z" fill="#788b9c"></path></g></g></svg><style>@media (prefers-color-scheme: light) { :root { filter: none; } }
@media (prefers-color-scheme: dark) { :root { filter: none; } }
</style></svg>